<svg id="OBJECTS" xmlns="http://www.w3.org/2000/svg" viewBox="0 0 750 500"><defs><style>.cls-1{fill:#edf7f4;}.cls-10,.cls-12,.cls-13,.cls-15,.cls-18,.cls-2,.cls-31,.cls-32,.cls-5,.cls-6,.cls-7,.cls-8,.cls-9{fill:none;}.cls-10,.cls-11,.cls-12,.cls-13,.cls-14,.cls-15,.cls-18,.cls-2,.cls-4,.cls-5,.cls-6,.cls-7,.cls-8,.cls-9{stroke:#c3e6dd;}.cls-11,.cls-12,.cls-13,.cls-14,.cls-18,.cls-2,.cls-31,.cls-32,.cls-4,.cls-6,.cls-7,.cls-8,.cls-9{stroke-miterlimit:10;}.cls-2{stroke-width:17px;}.cls-19,.cls-20,.cls-21,.cls-3{fill:#c3e6dd;}.cls-11,.cls-14,.cls-4{fill:#fff;}.cls-4{stroke-width:5px;}.cls-10,.cls-13,.cls-15,.cls-5,.cls-9{stroke-linecap:round;}.cls-10,.cls-15,.cls-5{stroke-linejoin:round;}.cls-5{stroke-width:0.76px;stroke-dasharray:0 2.04;}.cls-6{stroke-width:7.37px;}.cls-7{stroke-width:2.46px;}.cls-8{stroke-width:2.4px;}.cls-10,.cls-14{stroke-width:2px;}.cls-11,.cls-18{stroke-width:1.89px;}.cls-12{stroke-width:4px;}.cls-13{stroke-width:1.84px;}.cls-15{stroke-width:3.49px;}.cls-16{fill:#dcf0ea;}.cls-17{fill:#a2d2c5;}.cls-19{font-size:26.79px;}.cls-19,.cls-20,.cls-21{font-family:Montserrat-Bold, Montserrat;font-weight:700;}.cls-20{font-size:18.58px;}.cls-21{font-size:15.36px;}.cls-22{fill:#fafafa;}.cls-23{fill:#ffc29f;}.cls-24{fill:#213f3b;}.cls-25{fill:#2c6a65;}.cls-26{fill:#ff7800;}.cls-27{fill:#ff9014;}.cls-28{fill:#ffa980;}.cls-29{fill:#20534e;}.cls-30{fill:#ff9407;}.cls-31,.cls-32{stroke:#fff;}.cls-31{stroke-width:1.06px;}.cls-33{fill:#305f59;}</style></defs><path class="cls-1" d="M97.29,455.07s-58.24-41.78-14-101.58S122.19,272.68,82,211.14,80.79,104.6,140.78,110.6s88.5-42,130.5-64.5S364.8,22.56,420,64.33,569.76,44.6,616.26,77.6,619,157,611.35,186.2,616.6,251,655.22,287.73c62,58.91,6,166.72,6,166.72Z"/><line class="cls-2" x1="239.5" y1="436.02" x2="239.5" y2="455.07"/><line class="cls-2" x1="265" y1="421.37" x2="265" y2="455.07"/><line class="cls-2" x1="290.5" y1="392.33" x2="290.5" y2="455.07"/><line class="cls-2" x1="316" y1="411" x2="316" y2="455.07"/><line class="cls-2" x1="341.5" y1="427.7" x2="341.5" y2="455.07"/><line class="cls-2" x1="367" y1="387.67" x2="367" y2="455.07"/><line class="cls-2" x1="392.5" y1="417.7" x2="392.5" y2="455.07"/><line class="cls-2" x1="418" y1="385.37" x2="418" y2="455.07"/><line class="cls-2" x1="443.5" y1="339.22" x2="443.5" y2="455.07"/><line class="cls-2" x1="469" y1="365.67" x2="469" y2="455.07"/><line class="cls-2" x1="494.5" y1="339.22" x2="494.5" y2="455.07"/><line class="cls-2" x1="520" y1="396.08" x2="520" y2="454.53"/><line class="cls-2" x1="545.5" y1="351.95" x2="545.5" y2="455.07"/><line class="cls-2" x1="571" y1="293" x2="571" y2="455.07"/><line class="cls-2" x1="596.5" y1="342.33" x2="596.5" y2="455.07"/><line class="cls-2" x1="622" y1="286.3" x2="622" y2="455.07"/><polygon class="cls-3" points="597.44 231.27 593.4 235.31 532.03 296.68 454.91 296.68 388.8 362.78 285.4 362.78 193.06 455.12 158.9 455.12 275.4 338.63 378.79 338.63 444.9 272.52 522.02 272.52 576.32 218.23 580.36 214.19 588.9 222.73 597.44 231.27"/><polygon class="cls-3" points="645.35 166.28 542.99 206.31 588.9 222.73 605.32 268.64 645.35 166.28"/><rect class="cls-4" x="211.17" y="97.24" width="327.65" height="216.3" rx="14.02"/><line class="cls-5" x1="256.9" y1="276.44" x2="256.9" y2="286.3"/><line class="cls-5" x1="299.41" y1="248.15" x2="299.41" y2="286.3"/><line class="cls-5" x1="343.77" y1="219.3" x2="343.77" y2="286.3"/><line class="cls-5" x1="389.64" y1="261.3" x2="389.64" y2="286.3"/><line class="cls-5" x1="434.29" y1="203.92" x2="434.29" y2="286.3"/><line class="cls-5" x1="478.95" y1="248.15" x2="478.95" y2="286.3"/><line class="cls-5" x1="523.94" y1="189.57" x2="523.94" y2="286.3"/><line class="cls-6" x1="236.76" y1="149.01" x2="236.76" y2="169.04"/><line class="cls-6" x1="248.07" y1="140.2" x2="248.07" y2="169.04"/><line class="cls-7" x1="233.02" y1="172.96" x2="251.83" y2="172.96"/><line class="cls-6" x1="264" y1="137.3" x2="264" y2="169.04"/><line class="cls-6" x1="275.31" y1="127.68" x2="275.31" y2="169.04"/><line class="cls-7" x1="260.25" y1="172.96" x2="279.07" y2="172.96"/><line class="cls-6" x1="291.23" y1="137.3" x2="291.23" y2="169.04"/><line class="cls-6" x1="302.54" y1="146.51" x2="302.54" y2="169.04"/><line class="cls-7" x1="287.49" y1="172.96" x2="306.3" y2="172.96"/><line class="cls-6" x1="318.47" y1="153.17" x2="318.47" y2="169.04"/><line class="cls-6" x1="329.78" y1="147.31" x2="329.78" y2="169.04"/><line class="cls-7" x1="314.72" y1="172.96" x2="333.54" y2="172.96"/><line class="cls-6" x1="345.7" y1="140.2" x2="345.7" y2="169.04"/><line class="cls-6" x1="357.01" y1="129.85" x2="357.01" y2="169.04"/><line class="cls-7" x1="341.96" y1="172.96" x2="360.77" y2="172.96"/><line class="cls-6" x1="372.94" y1="141.7" x2="372.94" y2="169.04"/><line class="cls-6" x1="384.25" y1="154.62" x2="384.25" y2="169.04"/><line class="cls-7" x1="369.19" y1="172.96" x2="388.01" y2="172.96"/><line class="cls-6" x1="400.17" y1="138.5" x2="400.17" y2="169.04"/><line class="cls-6" x1="411.48" y1="144.91" x2="411.48" y2="169.04"/><line class="cls-7" x1="396.43" y1="172.96" x2="415.24" y2="172.96"/><line class="cls-6" x1="427.41" y1="144.91" x2="427.41" y2="169.04"/><line class="cls-6" x1="438.72" y1="153.17" x2="438.72" y2="169.04"/><line class="cls-7" x1="423.66" y1="172.96" x2="442.48" y2="172.96"/><line class="cls-6" x1="454.64" y1="140.2" x2="454.64" y2="169.04"/><line class="cls-6" x1="465.95" y1="130.48" x2="465.95" y2="169.04"/><line class="cls-7" x1="450.9" y1="172.96" x2="469.71" y2="172.96"/><line class="cls-6" x1="481.87" y1="141.7" x2="481.87" y2="169.04"/><line class="cls-6" x1="493.19" y1="135.04" x2="493.19" y2="169.04"/><line class="cls-7" x1="478.13" y1="172.96" x2="496.95" y2="172.96"/><line class="cls-6" x1="509.11" y1="125.46" x2="509.11" y2="169.04"/><line class="cls-6" x1="520.42" y1="132.3" x2="520.42" y2="169.04"/><line class="cls-7" x1="505.36" y1="172.96" x2="524.18" y2="172.96"/><line class="cls-8" x1="233.02" y1="189.57" x2="251.83" y2="189.57"/><line class="cls-8" x1="233.02" y1="203.39" x2="251.83" y2="203.39"/><line class="cls-8" x1="233.02" y1="217.21" x2="251.83" y2="217.21"/><line class="cls-8" x1="233.02" y1="231.03" x2="251.83" y2="231.03"/><line class="cls-8" x1="233.02" y1="244.85" x2="251.83" y2="244.85"/><line class="cls-8" x1="233.02" y1="258.66" x2="251.83" y2="258.66"/><line class="cls-8" x1="233.02" y1="272.48" x2="251.83" y2="272.48"/><line class="cls-8" x1="233.02" y1="286.3" x2="251.83" y2="286.3"/><path class="cls-8" d="M255.69,272.48c22.33,0,22.33-30,44.66-30s22.31-24.23,44.63-24.23,22.33,40.45,44.66,40.45,22.32-55.27,44.65-55.27,22.33,42.06,44.66,42.06,22.34-55.88,44.67-55.88"/><path class="cls-3" d="M259.36,272.43a2.47,2.47,0,1,0-2.46,2.48A2.47,2.47,0,0,0,259.36,272.43Z"/><path class="cls-3" d="M301.87,242.37a2.47,2.47,0,1,0-2.46,2.48A2.46,2.46,0,0,0,301.87,242.37Z"/><path class="cls-3" d="M346.23,218.41a2.47,2.47,0,1,0-2.46,2.47A2.47,2.47,0,0,0,346.23,218.41Z"/><path class="cls-3" d="M392.1,258.66a2.47,2.47,0,1,0-2.46,2.48A2.47,2.47,0,0,0,392.1,258.66Z"/><path class="cls-3" d="M436.76,203.39a2.47,2.47,0,1,0-2.47,2.47A2.48,2.48,0,0,0,436.76,203.39Z"/><path class="cls-3" d="M481.42,245.45a2.47,2.47,0,1,0-2.47,2.47A2.48,2.48,0,0,0,481.42,245.45Z"/><path class="cls-3" d="M526.08,189.57a2.47,2.47,0,1,0-2.46,2.47A2.47,2.47,0,0,0,526.08,189.57Z"/><line class="cls-8" x1="254.43" y1="286.3" x2="523.6" y2="286.3"/><rect class="cls-3" x="352.63" y="300" width="4.32" height="4.32"/><rect class="cls-3" x="366.1" y="300" width="4.32" height="4.32"/><rect class="cls-3" x="379.58" y="300" width="4.32" height="4.32"/><rect class="cls-3" x="393.06" y="300" width="4.32" height="4.32"/><line class="cls-9" x1="73" y1="455.07" x2="677" y2="455.07"/><path class="cls-10" d="M161.78,329.39a2.88,2.88,0,1,1-2.88-2.88A2.88,2.88,0,0,1,161.78,329.39Z"/><path class="cls-10" d="M278.19,62.82a2.89,2.89,0,1,1-2.88-2.89A2.88,2.88,0,0,1,278.19,62.82Z"/><path class="cls-10" d="M604.88,166.48a2.89,2.89,0,1,1-2.88-2.89A2.88,2.88,0,0,1,604.88,166.48Z"/><path class="cls-10" d="M600.32,289.19a2.88,2.88,0,1,1-2.88-2.89A2.88,2.88,0,0,1,600.32,289.19Z"/><path class="cls-10" d="M327.66,387.67a2.89,2.89,0,1,1-2.88-2.89A2.88,2.88,0,0,1,327.66,387.67Z"/><line class="cls-10" x1="121.72" y1="219.84" x2="121.72" y2="225.61"/><line class="cls-10" x1="124.61" y1="222.73" x2="118.84" y2="222.73"/><line class="cls-10" x1="480.02" y1="57.05" x2="480.02" y2="62.82"/><line class="cls-10" x1="482.91" y1="59.93" x2="477.14" y2="59.93"/><line class="cls-10" x1="336.36" y1="44.29" x2="340.44" y2="48.37"/><line class="cls-10" x1="340.44" y1="44.29" x2="336.36" y2="48.37"/><line class="cls-10" x1="643.02" y1="223.48" x2="643.02" y2="229.25"/><line class="cls-10" x1="645.9" y1="226.36" x2="640.13" y2="226.36"/><line class="cls-10" x1="96.35" y1="140.53" x2="96.35" y2="146.3"/><line class="cls-10" x1="99.23" y1="143.41" x2="93.46" y2="143.41"/><rect class="cls-11" x="139.31" y="150.36" width="43.5" height="50" rx="3"/><circle class="cls-12" cx="161.06" cy="172.02" r="13.67" transform="translate(-23.28 25.22) rotate(-8.35)"/><circle class="cls-12" cx="161.06" cy="172.02" r="6"/><line class="cls-13" x1="147.4" y1="192.89" x2="159.34" y2="192.89"/><line class="cls-13" x1="162.79" y1="192.89" x2="174.73" y2="192.89"/><rect class="cls-3" x="432.98" y="91.04" width="18.98" height="24.84"/><polygon class="cls-3" points="442.48 69.75 425.89 91.04 459.06 91.04 442.48 69.75"/><rect class="cls-3" x="410.91" y="117.19" width="8.67" height="11.34"/><polygon class="cls-3" points="415.24 107.47 407.67 117.19 422.82 117.19 415.24 107.47"/><rect class="cls-3" x="463.62" y="111.9" width="4.67" height="6.11"/><polygon class="cls-3" points="465.95 106.66 461.87 111.9 470.04 111.9 465.95 106.66"/><rect class="cls-14" x="122.83" y="64.64" width="125.7" height="65.21" rx="5.89"/><line class="cls-15" x1="194.59" y1="83.96" x2="239.37" y2="83.96"/><line class="cls-15" x1="194.59" y1="92.82" x2="218.06" y2="92.82"/><line class="cls-15" x1="194.59" y1="101.67" x2="231.67" y2="101.67"/><line class="cls-15" x1="194.59" y1="110.52" x2="218.06" y2="110.52"/><path class="cls-3" d="M144.34,80.63a23.57,23.57,0,1,0,38.55,25.52l-21.83-8.91Z"/><path class="cls-16" d="M176,79a23.57,23.57,0,0,0-31.69,1.6l16.72,16.61Z"/><path class="cls-17" d="M176,79l-15,18.21,21.83,8.91A23.61,23.61,0,0,0,176,79Z"/><circle class="cls-18" cx="576.88" cy="100.72" r="22.23" transform="translate(-8.46 82.9) rotate(-8.16)"/><text class="cls-19" transform="translate(567.11 108.43) rotate(8.16)">$</text><circle class="cls-18" cx="567.38" cy="158.83" r="15.42" transform="translate(149.03 573.72) rotate(-60.4)"/><text class="cls-20" transform="matrix(0.96, -0.27, 0.27, 0.96, 563.33, 166.46)">$</text><path class="cls-18" d="M617.51,141.48a12.75,12.75,0,1,1-9-15.59A12.75,12.75,0,0,1,617.51,141.48Z"/><text class="cls-21" transform="matrix(0.97, 0.26, -0.26, 0.97, 599.1, 141.95)">$</text><line class="cls-10" x1="340.44" y1="62.82" x2="388.67" y2="62.82"/><line class="cls-10" x1="340.44" y1="70.18" x2="373.33" y2="70.18"/><line class="cls-10" x1="340.44" y1="77.54" x2="362.83" y2="77.54"/><line class="cls-10" x1="340.44" y1="84.91" x2="354.33" y2="84.91"/><rect class="cls-3" x="279.89" y="81.06" width="7.39" height="7.39"/><rect class="cls-3" x="297.1" y="81.06" width="7.39" height="7.39"/><rect class="cls-3" x="314.32" y="81.06" width="7.39" height="7.39"/><circle class="cls-3" cx="101.1" cy="189.48" r="10.75"/><circle class="cls-22" cx="96.35" cy="184.73" r="1"/><circle class="cls-22" cx="101.1" cy="184.73" r="1"/><circle class="cls-22" cx="105.85" cy="184.73" r="1"/><circle class="cls-22" cx="96.35" cy="189.48" r="1"/><circle class="cls-22" cx="101.1" cy="189.48" r="1"/><circle class="cls-22" cx="105.85" cy="189.48" r="1"/><circle class="cls-22" cx="96.35" cy="194.23" r="1"/><circle class="cls-22" cx="101.1" cy="194.23" r="1"/><circle class="cls-22" cx="105.85" cy="194.23" r="1"/><path class="cls-3" d="M162.33,282.68H158.4a1.62,1.62,0,0,1-1.55-1.11,14.27,14.27,0,0,0-.93-2.24,1.63,1.63,0,0,1,.31-1.89l2.78-2.78a1.65,1.65,0,0,0,0-2.33l-2.79-2.79a1.65,1.65,0,0,0-2.33,0l-2.78,2.78a1.64,1.64,0,0,1-1.89.31,14.27,14.27,0,0,0-2.24-.93,1.63,1.63,0,0,1-1.11-1.56v-3.92a1.65,1.65,0,0,0-1.65-1.65h-3.95a1.65,1.65,0,0,0-1.65,1.65v3.92a1.63,1.63,0,0,1-1.11,1.56,14.27,14.27,0,0,0-2.24.93,1.64,1.64,0,0,1-1.89-.31l-2.77-2.78a1.65,1.65,0,0,0-2.33,0l-2.8,2.79a1.65,1.65,0,0,0,0,2.33l2.78,2.78a1.63,1.63,0,0,1,.31,1.89,14.27,14.27,0,0,0-.93,2.24,1.62,1.62,0,0,1-1.55,1.11h-3.93a1.64,1.64,0,0,0-1.64,1.65v3.95a1.63,1.63,0,0,0,1.64,1.64h3.93a1.63,1.63,0,0,1,1.55,1.12,15.11,15.11,0,0,0,.93,2.24,1.63,1.63,0,0,1-.31,1.89l-2.78,2.77a1.65,1.65,0,0,0,0,2.33l2.8,2.79a1.64,1.64,0,0,0,2.33,0l2.77-2.77a1.63,1.63,0,0,1,1.89-.31,14.27,14.27,0,0,0,2.24.93,1.62,1.62,0,0,1,1.11,1.55v3.93a1.64,1.64,0,0,0,1.65,1.64h3.95a1.64,1.64,0,0,0,1.65-1.64v-3.93a1.62,1.62,0,0,1,1.11-1.55,14.27,14.27,0,0,0,2.24-.93,1.63,1.63,0,0,1,1.89.31l2.78,2.77a1.64,1.64,0,0,0,2.33,0l2.79-2.79a1.65,1.65,0,0,0,0-2.33l-2.78-2.77a1.63,1.63,0,0,1-.31-1.89,15.11,15.11,0,0,0,.93-2.24,1.63,1.63,0,0,1,1.55-1.12h3.93a1.64,1.64,0,0,0,1.65-1.64v-3.95A1.65,1.65,0,0,0,162.33,282.68ZM142.25,294.5a8.2,8.2,0,1,1,8.19-8.2A8.19,8.19,0,0,1,142.25,294.5Z"/><path class="cls-3" d="M113.74,265.72h-2.47a1,1,0,0,1-1-.71,10.19,10.19,0,0,0-.58-1.41,1,1,0,0,1,.19-1.19l1.75-1.74a1,1,0,0,0,0-1.47l-1.76-1.76a1,1,0,0,0-1.46,0l-1.75,1.75a1,1,0,0,1-1.19.19,9.71,9.71,0,0,0-1.41-.58,1,1,0,0,1-.7-1v-2.47a1,1,0,0,0-1-1H99.85a1,1,0,0,0-1,1v2.47a1,1,0,0,1-.7,1,9.83,9.83,0,0,0-1.42.58,1,1,0,0,1-1.19-.19l-1.74-1.75a1.05,1.05,0,0,0-1.47,0l-1.76,1.76a1.05,1.05,0,0,0,0,1.47l1.75,1.74a1,1,0,0,1,.2,1.19A10.24,10.24,0,0,0,91.9,265a1,1,0,0,1-1,.71H88.45a1,1,0,0,0-1,1v2.49a1,1,0,0,0,1,1h2.47a1,1,0,0,1,1,.7,9.75,9.75,0,0,0,.59,1.41,1,1,0,0,1-.2,1.19l-1.75,1.74a1.05,1.05,0,0,0,0,1.47l1.76,1.76a1.05,1.05,0,0,0,1.47,0l1.74-1.75a1,1,0,0,1,1.19-.19,9.83,9.83,0,0,0,1.42.58,1,1,0,0,1,.7,1v2.47a1,1,0,0,0,1,1h2.49a1,1,0,0,0,1-1v-2.47a1,1,0,0,1,.7-1,9.71,9.71,0,0,0,1.41-.58,1,1,0,0,1,1.19.19l1.75,1.75a1,1,0,0,0,1.46,0l1.76-1.76a1,1,0,0,0,0-1.47l-1.75-1.74a1,1,0,0,1-.19-1.19,9.71,9.71,0,0,0,.58-1.41,1,1,0,0,1,1-.7h2.47a1,1,0,0,0,1-1v-2.49A1,1,0,0,0,113.74,265.72Zm-12.64,7.44a5.17,5.17,0,1,1,5.16-5.16A5.16,5.16,0,0,1,101.1,273.16Z"/><polyline class="cls-10" points="285.78 328.09 289.56 325.14 285.78 322.19"/><polyline class="cls-10" points="297.52 328.09 301.3 325.14 297.52 322.19"/><polyline class="cls-10" points="309.25 328.09 313.04 325.14 309.25 322.19"/><polyline class="cls-10" points="320.99 328.09 324.78 325.14 320.99 322.19"/><polygon class="cls-23" points="522.65 445.56 532.42 445.27 530.67 431.05 521.63 432.43 522.65 445.56"/><path class="cls-24" d="M535.8,454.53c1.12-3.74-1.5-6.47-2.33-9.77-.51-2-10.75-3.3-11.77,1.16a24.5,24.5,0,0,0-.19,8.61Z"/><polygon class="cls-23" points="468.24 445.92 478.25 445.92 479.24 429.7 469.46 429.09 468.24 445.92"/><path class="cls-24" d="M478.25,444.76h-9.33s-1,0-4.09,3.21-10.37.14-13.72,6.56H479S481.75,449.42,478.25,444.76Z"/><path class="cls-24" d="M514,181.85a10.6,10.6,0,0,0,2.38-3.8,4.91,4.91,0,0,0-.55-4.32,5,5,0,0,0-2.73-1.75,3,3,0,0,0-3.05.52,3.27,3.27,0,0,0-.6,2.47,38.9,38.9,0,0,1,.5,4.91c-.05,1-.29,1.9-.28,2.86,0,.81.45,2.91,1.55,2.1A20.78,20.78,0,0,0,514,181.85Z"/><polygon class="cls-25" points="521.3 277.03 533.3 439.51 521.3 439.51 500.43 321.27 480.21 439.51 468.35 439.51 479.35 277.03 521.3 277.03"/><path class="cls-23" d="M449.87,216.24s-2.38-3.84-2-6,.35-4.76-.83-6.23-.87-3.21-2.11-2.73c-.4.15-.21,2.76.36,4,0,0-3.52-7.16-4-8a.67.67,0,0,0-1.27.37s-.39-.75-1-.43-.28,1.16-.25,1.54a.83.83,0,0,0-.74,1,8.22,8.22,0,0,0,.27,1.34s-.39.07-.48.78a4.91,4.91,0,0,0,.38,2.22c.79,1.78.23,2.16,1.05,4s2.88,2,3.81,5.43,1.3,4.41,1.3,4.41Z"/><path class="cls-26" d="M479.71,208c-2.33.35-10.57,17.58-15.09,25.75l-4.52,8.17-10.94-28a6.23,6.23,0,0,0-5.84,2.63s5.84,37.78,7.3,42,6,7.3,14-2.77,21.88-29.6,23-31.79S493.17,205.92,479.71,208Z"/><path class="cls-27" d="M524,242.75C520.19,263,521.3,277,521.3,277H479.35s-1.74-65.46-.78-67.68c1.75-4,19.34-9.59,19.34-9.59l14.89,0s12.2,3.57,15,4.3c.82.22,1.15,1.91,1.11,4.71C528.81,215.48,526.65,228.47,524,242.75Z"/><path class="cls-26" d="M524,242.75C520.19,263,521.3,277,521.3,277h-4.87s1.32-49.95,8.57-66c1.09-2.42,2.42-3,3.88-2.23C528.81,215.48,526.65,228.47,524,242.75Z"/><path class="cls-28" d="M510.35,185.3s-.42,10,1.33,14.09l-5.79,6.32-4.07-.75-1.49-.76-1.05-3.06V185.3Z"/><path class="cls-23" d="M495.58,168.59s-4.82,21.87,1.31,25.77c4,2.51,10.89,1,13-8.72s-1.84-15-6.94-16.25A24.46,24.46,0,0,0,495.58,168.59Z"/><path class="cls-23" d="M510.48,181.36a1.92,1.92,0,0,1,2.95.32c1.27,1.8-1.76,4.95-3.78,4.89Z"/><rect class="cls-24" x="479.3" y="277.03" width="42" height="3.68"/><polygon class="cls-29" points="500.43 321.27 496.77 297.58 497.36 339.22 500.43 321.27"/><path class="cls-24" d="M487.39,259.91H436.7l-12.14-33.36a2.17,2.17,0,0,1,2-2.92h46.06a2.17,2.17,0,0,1,2,1.43Z"/><path class="cls-24" d="M517.51,263.06H467.14a1.57,1.57,0,0,1-1.57-1.58h0a1.57,1.57,0,0,1,1.57-1.57h50.37a1.57,1.57,0,0,1,1.58,1.57h0A1.58,1.58,0,0,1,517.51,263.06Z"/><path class="cls-24" d="M487.23,263.06H436.86a1.58,1.58,0,0,1-1.58-1.58h0a1.57,1.57,0,0,1,1.58-1.57h50.37a1.57,1.57,0,0,1,1.57,1.57h0A1.57,1.57,0,0,1,487.23,263.06Z"/><path class="cls-23" d="M488.85,257.77s-4.35-.21-6-1.12-5.82-1.09-6.68-1.09-.06,1.43,1,1.6a6.83,6.83,0,0,1,2.29,1.09s-6.46.57-8.05.45-3.49.35-2.92,1.14a2.25,2.25,0,0,0,1.55.86s.45,1.2,1.37,1.37a2.1,2.1,0,0,0,1.65,1,6.48,6.48,0,0,0,1.71.57s4.69.91,7.37.46,7.29-.73,7.29-.73Z"/><path class="cls-30" d="M527.61,204.06s7,1.06,9.93,12.44-2.9,35.43-5,43.41c-1.25,4.67-43.75,4.67-43.75,4.67a65.85,65.85,0,0,1-.79-8.18s29-4.73,35.14-8.48c0,0-1.31-19.41-1.6-26.9S520.37,204.84,527.61,204.06Z"/><path class="cls-26" d="M499.28,198.34s0,4.49,2.54,6.62a20.32,20.32,0,0,0-4.18,4.62,25,25,0,0,1,.27-9.82Z"/><path class="cls-26" d="M511.26,198.17s-3.53,5.66-9.44,6.79a48.35,48.35,0,0,1,3.07,6.08c2.94-2,7.09-7.08,7.91-11.24Z"/><path class="cls-24" d="M506.87,174.4a4,4,0,0,0,.26,2.83,7.67,7.67,0,0,0,1.82,1.91,3.69,3.69,0,0,1,1.39,2.18,14.27,14.27,0,0,0,4.39-3.12,6.13,6.13,0,0,0,1.62-5,4.67,4.67,0,0,0-7.9-2.46,3.16,3.16,0,0,0-.65,1.34C507.53,172.89,507.08,173.58,506.87,174.4Z"/><path class="cls-24" d="M507.81,165.86A24.3,24.3,0,0,0,497.34,164a8.85,8.85,0,0,0-5.83,2.48,3.85,3.85,0,0,0-.08,5.34,8.07,8.07,0,0,0,4,1.63,37.69,37.69,0,0,0,11.25.94c2.68-.26,5.32-1.42,6.05-3.9S509.78,166.6,507.81,165.86Z"/><polygon class="cls-23" points="223.28 445.16 230.29 445.16 231.21 434.81 222.65 433.96 223.28 445.16"/><path class="cls-24" d="M223.28,445.16s-1.76,2.23-1.05,7.18c.34,2.34,5.44,2.19,14.06,2.19H243s2.5-2.7-1.47-3.93c-9.69-3-11.21-5.44-11.21-5.44Z"/><polygon class="cls-23" points="189.39 446.93 181.11 446.68 182.59 434.63 190.25 435.8 189.39 446.93"/><path class="cls-24" d="M178.24,454.53c-.94-3.17,1.28-5.48,2-8.28.43-1.73,9.11-2.8,10,1a20.63,20.63,0,0,1,.17,7.29Z"/><path class="cls-24" d="M227.53,195.35s4.48,1.35,4.13,7.68-1.93,9.43-.07,16.05,2.92,15.33-8.46,14.59-14.78-1.69-18.62.54S190,226.67,195.16,220s7.38-10.59,6.4-16.41,3.49-11.46,10.6-13.2C218.13,189,230.11,188.35,227.53,195.35Z"/><path class="cls-27" d="M197.63,255.27c1.47,7.58,1.31,13.16,1.32,26.41h32.91s-.91-10.68.57-17.23a9.63,9.63,0,0,1,1.08-3c2.34-3.74,4.44-7.24,4.47-11.1a11,11,0,0,0-.39-2.9c-1.35-5.05-3.39-16.24-5.93-19.34s-15.13-2.72-15.13-2.72-16.48,0-21.42,2.81c-1.32.74-1.82,2.39-1.93,4.38C192.84,238.79,196.45,249.23,197.63,255.27Z"/><path class="cls-26" d="M202.5,257.9s23.06,1.86,29.93,6.55a9.63,9.63,0,0,1,1.08-3c2.34-3.74,4.44-7.24,4.47-11.1-1.53,3.17-5.43,7.38-15.35,7.51C206.68,258.09,202.5,257.9,202.5,257.9Z"/><path class="cls-23" d="M159.75,236.11,157,233s-1.78-3.28-2.56-4.47a40.19,40.19,0,0,0-3.7-3.94c-.47-.54-.86.48-.35,1.43s1.27,3,1.27,3-5.27-3.58-6.82-4.48-2.23-.21-2.11.18c0,0-1,.78-.18,1.52,0,0-.84.86.33,1.79,0,0-.87.86.8,1.94s2.62,4.35,5.19,5.36a19.62,19.62,0,0,1,6.88,4.82Z"/><path class="cls-27" d="M202.5,229.49a29.82,29.82,0,0,1-4.52,19.2c-6.14,9.16-13.44,18.85-18,19.3s-25.93-28.65-25.93-28.65l5.16-5.7,19.94,18.68s7.43-12,9.08-15.16c1.84-3.5,5.65-10.34,9.5-9.62S202.5,229.49,202.5,229.49Z"/><path class="cls-23" d="M266.08,231.22l2.74-3.13s1.79-3.28,2.56-4.47a41.44,41.44,0,0,1,3.7-3.94c.48-.53.86.48.36,1.43s-1.28,3-1.28,3,5.27-3.58,6.82-4.48,2.24-.21,2.12.18c0,0,.95.78.18,1.52,0,0,.83.87-.33,1.79,0,0,.86.86-.81,1.94s-2.62,4.35-5.18,5.36a19.57,19.57,0,0,0-6.89,4.82Z"/><path class="cls-27" d="M222.34,232.62s4.11,4,11.78,11.72c6.92,6.93,14.52,11.35,18.38,8.93s21-20.42,21-20.42l-5.21-5.14-17.92,15.38S238.6,231.83,236.14,230s-10.74-5.39-13.34-2.47S222.34,232.62,222.34,232.62Z"/><path class="cls-23" d="M224.76,225.78s.09,6.45-4.28,10.14c0,0-9.28-4.33-12.63-10.12A87.33,87.33,0,0,1,224.76,225.78Z"/><path class="cls-23" d="M222.87,225.6a2.69,2.69,0,0,1-2.28-2.92c0-2.68-.27-7.79-.27-7.79l-8.61.73s.73,8.43-.65,10l-1.39,1.55S221.49,229.16,222.87,225.6Z"/><path class="cls-28" d="M220.58,221.6s-5.65.88-8.67-1.53l-.2-4.45,8.87,1.92Z"/><path class="cls-23" d="M227.54,199s4.75,21.62-6.11,22.51-11.56-10.38-11.56-10.38-2.64-1-2.74-3.43,3-1,3-1-1.66-8.85,5.09-10.85C222.27,193.67,226.63,195.85,227.54,199Z"/><path class="cls-24" d="M226.87,196.3s-4,11.24-16.79,10.31c0,0-2.17-8.63.51-11.81S223.78,190.84,226.87,196.3Z"/><path class="cls-25" d="M199,281.68s-14.77,22.86-18.62,160.37h10.28s21.1-93,23.64-120.8c.29,1.93,7.54,120.8,7.54,120.8h10.29s13.33-144.47-.22-160.37Z"/><polygon class="cls-29" points="214.25 321.25 217.85 304.32 215.57 337 214.25 321.25"/><path class="cls-27" d="M620.52,445.15c-5.56-3.39,16-61,26-85.59,9.76-24.07-24.8-33.1-32.93-3.7C609.4,370.92,609.19,426.61,620.52,445.15Z"/><path class="cls-31" d="M620.52,445.15s-11.42-56.33,11.76-96.78"/><path class="cls-30" d="M602.82,376.74c-17.4-24.67-34.74-4.46-23.2,12.59s41,55.64,41,55.64S620.23,401.41,602.82,376.74Z"/><path class="cls-32" d="M620.58,445s-13.82-40.75-32.29-65.74"/><path class="cls-26" d="M648.54,382c23.71-14.06,27.79,5.21,17.48,17.38s-47.89,42.19-47.89,42.19S624.83,396.09,648.54,382Z"/><path class="cls-32" d="M618.44,439.38s10.09-23.07,42-50.36"/><rect class="cls-25" x="606.74" y="436.02" width="24" height="4.85"/><polygon class="cls-33" points="611.02 455.07 626.46 455.07 629.46 440.87 608.02 440.87 611.02 455.07"/><path class="cls-26" d="M134.47,377c13-27.25,33.5-10.25,25,8.5s-31,61.75-31,61.75S121.47,404.2,134.47,377Z"/><path class="cls-31" d="M128.47,447.2s6.75-42.5,20.75-70.25"/><path class="cls-30" d="M102,381c-21.5-17.25-28.25,1.25-19.75,14.75s41.5,48.5,41.5,48.5S123.47,398.2,102,381Z"/><path class="cls-31" d="M123.72,442S117,417.7,89.22,386.2"/><path class="cls-27" d="M126,444.2S101.6,379,106.85,352s31.21-13.45,30.46,5.05S126,444.2,126,444.2Z"/><path class="cls-31" d="M126,444.2s-3.25-59.5-4.25-92.25"/><rect class="cls-25" x="114.59" y="436.02" width="24" height="4.85"/><polygon class="cls-33" points="134.31 455.07 118.87 455.07 115.87 440.87 137.31 440.87 134.31 455.07"/></svg>